<?xml version="1.0" standalone="no"?><!DOCTYPE svg PUBLIC "-//W3C//DTD SVG 1.1//EN" "http://www.w3.org/Graphics/SVG/1.1/DTD/svg11.dtd"><svg t="1620960727391" class="icon" viewBox="0 0 1024 1024" version="1.1" xmlns="http://www.w3.org/2000/svg" p-id="1923" xmlns:xlink="http://www.w3.org/1999/xlink" width="200" height="200"><defs><style type="text/css"></style></defs><path d="M341.43 603.79c-4.76-0.94-14.32-1.41-28.69-1.41h-19.26v58.59h21.82c15.71 0 26.22-1.08 31.51-3.24 5.3-2.16 9.45-5.54 12.46-10.14 3.01-4.6 4.51-9.95 4.51-16.06 0-7.51-2.11-13.71-6.33-18.59-4.22-4.88-9.56-7.93-16.02-9.15z m216.28 30.28c-2.69-8.54-6.47-15.21-11.31-20-4.85-4.79-11-8.03-18.45-9.72-5.57-1.31-16.48-1.97-32.72-1.97h-17.91v136.75h29.76c11.13 0 19.17-0.66 24.11-1.97 6.46-1.69 11.83-4.55 16.09-8.59s7.74-10.68 10.44-19.93c2.69-9.25 4.04-21.85 4.04-37.81-0.01-15.96-1.36-28.22-4.05-36.76z m51.56-500.33H191.94v756.51h640.12V356.53L609.27 133.74z m-211.01 529.2c-4.4 8.64-9.99 15.42-16.77 20.35-6.78 4.93-13.67 8.19-20.67 9.79-9.52 1.97-23.3 2.96-41.34 2.96h-25.99v77.88h-39.86V567.45h63.97c24.24 0 40.04 1.03 47.4 3.1 11.31 3.1 20.79 9.84 28.42 20.21 7.63 10.38 11.45 23.78 11.45 40.21-0.01 12.68-2.21 23.33-6.61 31.97zM596.9 716.6c-4.94 15.02-11.99 27.18-21.14 36.48-6.91 7.04-16.25 12.54-28.01 16.48-8.8 2.91-20.56 4.37-35.28 4.37h-75.01V567.45h72.86c16.43 0 28.95 1.32 37.57 3.94 11.58 3.57 21.5 9.91 29.76 19.01 8.26 9.11 14.55 20.26 18.86 33.45 4.31 13.19 6.46 29.46 6.46 48.8-0.01 17-2.03 31.65-6.07 43.95z m175.48-114.22H676.9v48.87h82.42v34.93H676.9v87.74h-39.86V567.45h135.35v34.93h-0.01z m1.27-243.99H610.84v-75.52l0.13-87.29 162.69 162.69v0.12z" p-id="1924"></path></svg>